<mxfile host="65bd71144e">
    <diagram id="0J_ytc_ppCBTxAfywJMQ" name="Page-1">
        <mxGraphModel dx="470" dy="664" grid="1" gridSize="10" guides="1" tooltips="1" connect="1" arrows="1" fold="1" page="1" pageScale="1" pageWidth="827" pageHeight="1169" math="0" shadow="0">
            <root>
                <mxCell id="0"/>
                <mxCell id="1" parent="0"/>
                <mxCell id="2" value="&lt;h1&gt;Cas isolés: exo 4&lt;/h1&gt;&lt;p dir=&quot;auto&quot; style=&quot;box-sizing: border-box ; margin-top: 0px ; margin-bottom: 16px ; color: rgb(201 , 209 , 217) ; font-family: , &amp;#34;blinkmacsystemfont&amp;#34; , &amp;#34;segoe ui&amp;#34; , &amp;#34;helvetica&amp;#34; , &amp;#34;arial&amp;#34; , sans-serif , &amp;#34;apple color emoji&amp;#34; , &amp;#34;segoe ui emoji&amp;#34; ; font-size: 16px ; background-color: rgb(13 , 17 , 23)&quot;&gt;&lt;span style=&quot;color: rgb(240 , 246 , 252) ; font-family: , &amp;#34;blinkmacsystemfont&amp;#34; , &amp;#34;segoe ui&amp;#34; , &amp;#34;helvetica&amp;#34; , &amp;#34;arial&amp;#34; , sans-serif , &amp;#34;apple color emoji&amp;#34; , &amp;#34;segoe ui emoji&amp;#34; ; background-color: rgb(22 , 27 , 34)&quot;&gt;&amp;nbsp;Modélisez l'achat d'un cd sur l'internet en utilisant différents modes de paiement (Paypal et Carte bancaire). Le client peut utiliser un code de réduction.&lt;/span&gt;&lt;br&gt;&lt;/p&gt;" style="text;html=1;strokeColor=none;fillColor=none;spacing=5;spacingTop=-20;whiteSpace=wrap;overflow=hidden;rounded=0;" vertex="1" parent="1">
                    <mxGeometry x="40" y="40" width="690" height="100" as="geometry"/>
                </mxCell>
                <mxCell id="9" value="" style="edgeStyle=none;html=1;endArrow=none;endFill=0;" edge="1" parent="1" source="3" target="8">
                    <mxGeometry relative="1" as="geometry"/>
                </mxCell>
                <mxCell id="3" value="Client" style="shape=umlActor;verticalLabelPosition=bottom;verticalAlign=top;html=1;" vertex="1" parent="1">
                    <mxGeometry x="50" y="280" width="30" height="60" as="geometry"/>
                </mxCell>
                <mxCell id="8" value="&lt;br&gt;acheter" style="ellipse;whiteSpace=wrap;html=1;verticalAlign=top;" vertex="1" parent="1">
                    <mxGeometry x="180" y="230" width="120" height="60" as="geometry"/>
                </mxCell>
                <mxCell id="10" value="&lt;span style=&quot;color: rgba(0 , 0 , 0 , 0) ; font-family: monospace ; font-size: 0px&quot;&gt;%3CmxGraphModel%3E%3Croot%3E%3CmxCell%20id%3D%220%22%2F%3E%3CmxCell%20id%3D%221%22%20parent%3D%220%22%2F%3E%3CmxCell%20id%3D%222%22%20value%3D%22%26lt%3Bbr%26gt%3Bacheter%22%20style%3D%22ellipse%3BwhiteSpace%3Dwrap%3Bhtml%3D1%3BverticalAlign%3Dtop%3B%22%20vertex%3D%221%22%20parent%3D%221%22%3E%3CmxGeometry%20x%3D%22180%22%20y%3D%22230%22%20width%3D%22120%22%20height%3D%2260%22%20as%3D%22geometry%22%2F%3E%3C%2FmxCell%3E%3C%2Froot%3E%3C%2FmxGraphModel%3E&lt;/span&gt;&lt;br&gt;recher&lt;span style=&quot;color: rgba(0 , 0 , 0 , 0) ; font-family: monospace ; font-size: 0px&quot;&gt;%3CmxGraphModel%3E%3Croot%3E%3CmxCell%20id%3D%220%22%2F%3E%3CmxCell%20id%3D%221%22%20parent%3D%220%22%2F%3E%3CmxCell%20id%3D%222%22%20value%3D%22%26lt%3Bbr%26gt%3Bacheter%22%20style%3D%22ellipse%3BwhiteSpace%3Dwrap%3Bhtml%3D1%3BverticalAlign%3Dtop%3B%22%20vertex%3D%221%22%20parent%3D%221%22%3E%3CmxGeometry%20x%3D%22180%22%20y%3D%22230%22%20width%3D%22120%22%20height%3D%2260%22%20as%3D%22geometry%22%2F%3E%3C%2FmxCell%3E%3C%2Froot%3E%3C%2FmxGraphModel%3E&lt;/span&gt;cher titre" style="ellipse;whiteSpace=wrap;html=1;verticalAlign=top;" vertex="1" parent="1">
                    <mxGeometry x="450" y="160" width="120" height="60" as="geometry"/>
                </mxCell>
                <mxCell id="13" value="&lt;br&gt;créer le panier" style="ellipse;whiteSpace=wrap;html=1;verticalAlign=top;" vertex="1" parent="1">
                    <mxGeometry x="450" y="280" width="120" height="60" as="geometry"/>
                </mxCell>
                <mxCell id="14" value="&lt;br&gt;payer" style="ellipse;whiteSpace=wrap;html=1;verticalAlign=top;" vertex="1" parent="1">
                    <mxGeometry x="450" y="430" width="120" height="60" as="geometry"/>
                </mxCell>
                <mxCell id="20" style="edgeStyle=none;html=1;exitX=0;exitY=0.5;exitDx=0;exitDy=0;entryX=1;entryY=0.5;entryDx=0;entryDy=0;endArrow=block;endFill=0;" edge="1" parent="1" source="15" target="14">
                    <mxGeometry relative="1" as="geometry"/>
                </mxCell>
                <mxCell id="15" value="&lt;br&gt;payer carte" style="ellipse;whiteSpace=wrap;html=1;verticalAlign=top;" vertex="1" parent="1">
                    <mxGeometry x="650" y="370" width="120" height="60" as="geometry"/>
                </mxCell>
                <mxCell id="21" style="edgeStyle=none;html=1;exitX=0;exitY=0.5;exitDx=0;exitDy=0;entryX=0.981;entryY=0.671;entryDx=0;entryDy=0;entryPerimeter=0;endArrow=block;endFill=0;" edge="1" parent="1" source="16" target="14">
                    <mxGeometry relative="1" as="geometry"/>
                </mxCell>
                <mxCell id="16" value="&lt;br&gt;payer paypal" style="ellipse;whiteSpace=wrap;html=1;verticalAlign=top;" vertex="1" parent="1">
                    <mxGeometry x="650" y="500" width="120" height="60" as="geometry"/>
                </mxCell>
                <mxCell id="17" value="&amp;lt;&amp;lt;include&amp;gt;&amp;gt;" style="html=1;verticalAlign=bottom;labelBackgroundColor=none;endArrow=open;endFill=0;dashed=1;entryX=1;entryY=0;entryDx=0;entryDy=0;exitX=0;exitY=0.5;exitDx=0;exitDy=0;" edge="1" parent="1" source="10" target="8">
                    <mxGeometry width="160" relative="1" as="geometry">
                        <mxPoint x="320" y="240" as="sourcePoint"/>
                        <mxPoint x="480" y="240" as="targetPoint"/>
                    </mxGeometry>
                </mxCell>
                <mxCell id="18" value="&amp;lt;&amp;lt;include&amp;gt;&amp;gt;" style="html=1;verticalAlign=bottom;labelBackgroundColor=none;endArrow=open;endFill=0;dashed=1;exitX=0;exitY=0.5;exitDx=0;exitDy=0;entryX=1;entryY=0.5;entryDx=0;entryDy=0;" edge="1" parent="1" source="13" target="8">
                    <mxGeometry width="160" relative="1" as="geometry">
                        <mxPoint x="320" y="240" as="sourcePoint"/>
                        <mxPoint x="480" y="240" as="targetPoint"/>
                    </mxGeometry>
                </mxCell>
                <mxCell id="19" value="&amp;lt;&amp;lt;include&amp;gt;&amp;gt;" style="html=1;verticalAlign=bottom;labelBackgroundColor=none;endArrow=open;endFill=0;dashed=1;exitX=0.006;exitY=0.391;exitDx=0;exitDy=0;exitPerimeter=0;entryX=1;entryY=1;entryDx=0;entryDy=0;" edge="1" parent="1" source="14" target="8">
                    <mxGeometry width="160" relative="1" as="geometry">
                        <mxPoint x="320" y="240" as="sourcePoint"/>
                        <mxPoint x="480" y="240" as="targetPoint"/>
                    </mxGeometry>
                </mxCell>
            </root>
        </mxGraphModel>
    </diagram>
</mxfile>